<svg xmlns="http://www.w3.org/2000/svg" width="2000" height="2000" id="sign-up-form"><defs><clipPath id="a"><path fill="none" d="M1256.719 963.2c-34.4 51.542-380.844 79.806-425.875 16.471-69.6-97.8 130.844-377.3 130.844-377.3-2.586-13.359-3.068-45.653 7.456-58.255 15.942-19.155-7.773-37.347 6.98-41.479 18.96-5.291 34.153 12.62 67.183 21.577 19.569 5.252 16.837 56.619-1.664 85.37-6.585 10.2-19.164 11.132-19.164 11.132s-77.321 190.261-60.9 226.7c20.369 45.072 117.34-6.822 266.336-27.854 71.255-10.071 47.759 115.228 28.804 143.638Z"></path></clipPath><clipPath id="b"><path fill="none" d="M1225.557 1383.137c8.818-166.389-49.667-311.2-44.343-406.321 3.411-60.341-22.712-149.9 76.456-164.409 85.024-12.438 190.1 10.034 210.814 32.912 41.93 46.156 26.705 296.421-13.145 330.556-79.866 50.99-167.386 156.314-229.782 207.262Z"></path></clipPath><clipPath id="c"><path fill="none" d="M1458.657 848.333c57.161 24.13 173.557 352.544 106.649 413.727s-508.019-46.6-508.019-46.6c-12.638 5.047-44.185 11.582-58.62 3.605-21.724-12.054-8.355-38.971-15.183-52.68-8.753-17.629-71.281 22.037-68.761-12.108 1.57-20.194 102.939-31.493 134.65-18.7 11.339 4.559 14.611 16.748 14.611 16.748s314.181 29.1 346.892 6.125c40.451-28.462-60.943-131.077-45.165-247.07 9.71-71.299 61.562-76.323 92.946-63.047Z"></path></clipPath><clipPath id="d"><path fill="none" d="M1271.174 810.159s33.528-24.8 25.707-50.907c-2-6.855-17.137 12.462-30.781 4.1-18.636-11.5-23.129-77.778-2.08-112.262 13.061-21.373 58.984-34.193 73.96-19.634s20.881 76.614 15.723 107c-8.153 48.47 36.023 77.629 36.023 77.629s-73.378 58.727-91.847 107.471c-5.407 14.314-26.705-113.397-26.705-113.397Z"></path></clipPath></defs><path fill="#f0eff4" fill-rule="evenodd" d="M785 1537.168C520.391 1555.184 237.543 1341.3 237.543 1081c0-260.314 419.413-149.376 555.466-355.976 325.983-494.673 984.086 301.343 752.728 390.186-463.572 177.89-125.995 378.706-760.737 421.958Z"></path><path fill="#dad8e4" d="M1508.019 1070.533c.141.694.5 1.343.647 2.037 1.169 6.505 1.915 10.928 1.142 16.612-1.851 12.15-10.343 23.924-5.434 39.313 5.288 21.808 32 35.068 39.186 13.45 4.12-14.28-2.893-31.66-10.737-47.433a181.136 181.136 0 0 0-15.045-24.217 60.05 60.05 0 0 0 18.021-4.029c1.215-.48 2.208-.916 3.423-1.4.344.173.911.3 1.255.475 10.592-4.491 19.28-8.847 30.053-11.69 18.529-5.331 42-10.673 43.753-30.5.186-6.291-5.579-12.612-11.609-17.2a37.911 37.911 0 0 0-27.753-5.84c-16.643 2.074-28.13 12.032-34.354 24.322-3.832 7.729-5.6 16.495-6.8 25.391-.266 4.381-1.3 9.155-.212 13.751-7.068 2.835-14.883 3.893-23.184 4.084a2.38 2.38 0 0 0-1.235 0 62.691 62.691 0 0 1-8.888-.414c-.678-13.577 4.858-26.212 9.706-39.192 1.583-5.122 3.732-10.115 4.283-15.756a52.532 52.532 0 0 0 13.118 2.228c8.219.546 15.207-4.2 12.075-12-5.6-10.443-25.013-15.52-35.539-17.536a107.58 107.58 0 0 0-27.089-.68 18.792 18.792 0 0 0-3.685.485c5.288-5.13 10.353-10.216 15.3-15.519 4.417-4.477 8.591-9.388 12.887-14.082 14.048 3.007 26.838 10.831 39.85 18.611 15.8 10.117 32.317 21.057 48.5 15.947 13.609-4.844 12.893-22.02-2.588-32.442-15.7-10.377-34.529-14.849-51.19-15.9a121.432 121.432 0 0 0-20.307.391c-.668.131-1.457.046-2.348.222l11.609-12.388c6.565-6.824 13.251-13.432 19.815-20.257.79.085 1.8.127 2.814.168 4.292.6 6.094.724 10.507 1.539 10.991 2.406 22.144 5.983 33.116 7.911a125.644 125.644 0 0 0 31.826 1.19c7.714-.8 15.873-1.682 22.253-4.862 11.544-5.881 12.668-19.331-3.785-28.839a80.328 80.328 0 0 0-46.721-8.359c-4.232.833-9.274 1.1-13.021 2.8l-3.156-2.987.446-.087c9.114-4.922 19.179-8.587 29.466-12.3 13.507-4.584 27.925-8.865 42.546-13.668 6.092 3.37 11.374 6.179 17.647 11.2 16.835 13.282 28.845 34.729 45.213 50.267 11.228 10.777 40.652 29.758 54.806 27.212 29.2-5.268-26.326-47.01-39.54-56.916-15.176-11.2-31.508-20.494-48.022-28.788a134.961 134.961 0 0 0-16.921-7.251c19.38-6.462 38.517-13.356 56.259-21.419 3.2-1.352 6.278-2.92 9.134-4.444l.344.172c2.165.777 4.675 1.726 6.962 2.718 3.644 1.207 11.111 5.269 12.609 6.177 29.121 17.116 47.321 46.965 78.974 62.861 13.317 7 30.118 11.388 40.751 5.205 17.564-15-21.329-42.943-39.217-54.573-16.939-10.375-35.3-17.1-53.575-21.923a170.567 170.567 0 0 0-27.956-5.319 55.569 55.569 0 0 0-8.887-.415 315.422 315.422 0 0 0 61.132-41.861c.91.3 1.923.343 2.833.645a131.313 131.313 0 0 1 15.383 5.39c12.913 5.394 22.708 11.4 34.4 19.924 14.468 10.38 29.016 22.668 46.262 26.97 5.992.985 12.875 1.794 16.906-1.164 3.465-3.087 4.238-8.772.658-13.839-4.934-7.928-13.717-13.9-22.033-19.474a198.717 198.717 0 0 0-23.7-13.614 163.391 163.391 0 0 0-31.149-11.906 215.533 215.533 0 0 0-26.174-5.67c3.222-3.521 6.443-7.041 9.544-10.778l.222-.044c13.388-7.447 29.1-12.946 38.04-24.807 3.607-5.04 6.749-10.469 6.349-17.365.149-9.891-14.138-18.623-24.4-19.729-10.729-1.5-18 4.506-20.6 12.233-2.74 9.68-.258 20.736-.953 30.975a74 74 0 0 1-1.873 14.319 1.608 1.608 0 0 0 .059 1.431c-3.748 4.346-7.5 8.692-11.691 13.125a122.952 122.952 0 0 1-9.724 9.131c1.867-6.381 1.224-13.711-2.557-20.9-2.344-5.071-8.112-8.746-13.8-10.512-12.833-3.486-16.382 5.631-11.146 15.423 3.922 7.887 12.52 17.5 12.192 23.1a32.049 32.049 0 0 1-.145 4.6 1.776 1.776 0 0 0-.042 1.691 266.211 266.211 0 0 1-28.6 19.582c3.609-7.686 6.288-16.151 3.865-25.775-2.16-8.715-11.082-18.022-21.61-17.393-9.86.5-16.484 5.892-21.853 11.759-10.88 11.042-12.7 29.438-16.855 42.764-1.868 6.381-4.99 12.287-8.233 17.976-.3.782-1.5 1.739-1.339 2.91-25.435 9.337-51.5 17.114-78.086 25.716-11.4 3.929-22.681 8.074-33.01 13.475 4.5-5.215 8.774-10.387 12.928-15.774 5.3.639 10.1-.065 13.142-2.588 3.362-2.827 1.889-8.549-2.421-12.271 2.209-3.562 4.641-7.167 6.729-10.946 11.617 6.613 22.809 11.143 31.639 7.481 7.474-3.877 1.752-14.536-6.1-19.724a68.639 68.639 0 0 0-10.463-5.878 85.1 85.1 0 0 1 12.254-7.7c19.12-10.018 41.9-15.7 58.309-28.8 8.265-6.438 17.522-13.312 19.777-23.858.732-3.992.978-8.851-2.562-12.964-13.454-12.985-31.742-4.574-42.091.35a57.791 57.791 0 0 0-22.1 19.264c-5.513 7.819-9.062 16.937-13.3 25.708a115.272 115.272 0 0 1-5.96 10.554c.527-.825.933-1.867 1.46-2.693 3.913-8.467 7.139-17.28 10.364-26.092.446-.088.547-.349.992-.436a1.436 1.436 0 0 0 .629-1.086 3.118 3.118 0 0 0-.505-1.344c.1-.26.2-.521.425-.565a1.374 1.374 0 0 0 1.54-.784c5.8-14.371 23.938-39.829 9.8-58.452a10.491 10.491 0 0 0-6.963-2.718c-6.741-.116-10.247 4.663-12.417 9.179-4.908 11.55-5.241 25.085-1.85 39.089a107.357 107.357 0 0 0 3.292 11.618c.485.867.525 1.821 1.233 2.644-2.208.915-4.294 2.048-6.5 2.963a120.336 120.336 0 0 1-4.581-20.985c-1.289-9.367-2.695-24.243-13.785-31.681a7.686 7.686 0 0 0-10.226 2.5c-4.661 6.69-2.461 16.359.934 25.07a91.8 91.8 0 0 0 11.889 21.231 56.1 56.1 0 0 0 6.837 7.793l.122.217c-3.4 1.873-6.8 3.745-9.864 5.79-11.586 7.573-21.412 16.964-31.137 26.094-.972.913-1.843 1.566-2.815 2.479-1.315-1.906-2.407-3.856-3.5-5.806a144.475 144.475 0 0 1-9.137-19.848c-4.4-11.4-10.587-30.386-25.359-39.984-4.735-3.157-9.96-1.888-11.966 1.153-3.264 5.212.092 12.97 2.719 19.428 4.73 11.095 12.253 21.88 20.648 32.013 4.956 5.759 9.791 11.3 15.294 16.711 1.275.952 2.347 2.425 3.723 3.116-6.483 6.087-13.189 12.217-19.895 18.348-6-12.046-9.823-22.84-14.612-35.366-4.628-11.355-9.4-23.4-19.574-33.186-8.275-7.27-17.529-5.689-19.923 1.517-4.443 11.939 1.154 27.673 8.676 41.1a118.407 118.407 0 0 0 17.557 22.519 158.961 158.961 0 0 0 12.726 11.685c1.154.735 2.206 1.731 3.359 2.466-3.14 2.783-6.381 5.826-9.521 8.609l-9.421 8.349c-.222.044-.445.088-.324.3-.223.044-.1.261-.1.261-2.391 1.914-4.882 4.088-7.273 6l-.223.043c-8.025-17.421-17.629-35.012-32.214-50.9-6.717-7.577-14.222-15.239-23.43-20.642-10.24-5.921-25.947-11.006-27.373.579-.534 11.41 8.1 21.976 18.584 30.976-7-3.672-14.512-6.042-21.6-6.33a16.492 16.492 0 0 0-17.24 14.7c-.659 16.486 16.194 32.89 28.148 47.614 6.494 7.62 12.46 16.067 12.415 23.051a27.746 27.746 0 0 1-1.078 6.466c-.3.781-.953 1.39-.467 2.256a2.168 2.168 0 0 0 1.4 1.168 12.53 12.53 0 0 0-1.5 1.739c-4.414 1.831-8.122 4.485-8.712 9.171a3.421 3.421 0 0 1-.163 1.475 5.935 5.935 0 0 1-.953 1.391 96.225 96.225 0 0 0-5.695 8.818c.859-11.714 2.163-23.516-2.748-36.259-7.738-21.326-29.629-42.752-36.073-62.649-3.252-10.664-2.254-19.039-3.117-28.97 1.133.257 2.126-.178 2.309-1.177.568-2.517 1.036-4.773 1.726-7.074 2.111-8.594 3.857-15.191 6.536-23.655 1.481-4.862 3.185-9.767 4.89-14.673l.222-.044a64.181 64.181 0 0 1 9.5-1.148c6.034-.707 20.53-.434 27.433.853 14.333 1.748 32.285 9.518 42.636 1.948 7.718-6.09 1.228-19-8.93-25.661-11.919-8.477-26.8-12.523-39.208-11.282-9.172.844-16.059 5.326-22.5 9.721a70.538 70.538 0 0 1-3.5 2.133c1.32-6.032 2.418-12.021 3.9-16.882 4-14.5 10.406-27.785 16.125-41.418 1.134.258 2.126-.178 3.139-.137 2.692-.049 5.385-.1 7.976.113a135.7 135.7 0 0 1 23.179 3.855c9.19 2.279 18.541 5.73 27.792 6.8 13.1 1.75 26.037-.316 33.472-7.793 6.869-7.606-2.031-19.083-12.939-24.872-11.151-6.223-23.5-8.843-34.857-9.252-16.641-.572-26.364 5.912-32.507 17.464-1.682 2.736-5.795 6.432-9.136 7.09a19.912 19.912 0 0 1-3.665.962c1.034-2.127 1.724-4.428 2.637-6.772 5.132-14.24 6.216-28.644 15.012-41.2 4.681-6.213 14.668-14.433 19.614-22.382 2.432-3.605 4.864-7.211 6.952-10.989 15.388-2.549 34.842.836 51.931-1.326 6.358-1.011 12.676-2.976 16.081-7.5 6.91-9.3.419-19.565-14.053-24.653-15.4-5.866-28.061.234-38.027 6.284a40.9 40.9 0 0 0-8.549 7.7 75.138 75.138 0 0 1 3-8.769c2.454-5.775 5.453-9.252 10.558-13.383a118.834 118.834 0 0 0 15.963-13 112.936 112.936 0 0 0 10.937-6.964c4.578-3.306 9.156-6.613 11.65-11.433 3.548-6.471 5.255-16.669-4.032-23.98-5.119-4.283-12.812-5.655-17.672-3.736-11.646 6.141-13.015 24.45-9.765 37.76q1.18 4.1 2.363 8.194l.121.216c-2.168 1.87-4.335 3.74-6.624 5.393a64.523 64.523 0 0 0-11.183 9.177c-.2-7.417 2.623-15.188 2.062-23.255-.416-12.666-9.881-26.917-23.6-35.521-17.141-9.853-30.752-2.363-27.078 13.028 1.533 7.155 5.982 14.216 10.31 21.061 5.137 7.406 10.618 14.986 17.416 21.825 3.4 3.42 7.122 6.535 10.966 9.867a25.541 25.541 0 0 0 3.7 2.639c-2.372 5.037-3.591 10.808-5.276 16.191a78.09 78.09 0 0 1-11.758 22.278c-4.52 7.384-14.406 15.344-20.364 23.251a28.487 28.487 0 0 0-2.939 4.909 4.066 4.066 0 0 0-.951-1.256c-2.563-10.319-2.536-20.426-3.743-30.531-1.89-18.389-9.428-37.589-31.913-49.037-10.1-5.227-23.236-7.932-29.942-1.8-7.557 7.26-6.332 20.488.524 31.4 9.646 15.9 26.582 28.92 43.419 39.555 6.8 4.194 12.953 6.35 17.4 10.765l.243.433a27.167 27.167 0 0 0 1.293 4.075 1.957 1.957 0 0 0 1.5.908c-4.4 10.246-6.271 21.919-9.9 31.774-5.457 14.544-12.29 28.4-17.746 42.939-.627-1.56-1.414-4.291-2.041-5.851a208.049 208.049 0 0 1-6.158-23.8c-4.459-20.769-10.7-46.48-36.52-59.915-33.779-15.718-60.943 3.34-39 34.135 12.034 16.632 31.056 28.521 50 38.5 9.552 5.575 19.956 10.021 26.511 16.427a23.643 23.643 0 0 1 2.77 4.506c.485.866.4 1.6 1.213 2.166l1.032.518c-.385 1.52-.994 3.082-1.38 4.6-3.165 10.244-4.834 21.4-7.311 31.985a54.01 54.01 0 0 1-2.374 7.683c-.223.044-.1.261-.2.521-.609 1.563-.995 3.082-1.6 4.645-10.843-12.3-16.764-27.726-27.322-41.281-10.378-11.908-26.5-24.366-42.235-24.636-23.121.222-7.392 30.077 5.354 42.239 10.42 10.215 23.756 17.691 37.439 22.694 1.575 5.463 3.6 10.837 5.738 16.429-1.538-1.862-3.3-3.681-4.835-5.543-4.35-4.675-14.767-17.537-21.166-14.833-6.016 3.83 3.795 15.608 9.805 19.716a60.145 60.145 0 0 0 18.923 9.5l.222-.044a80.434 80.434 0 0 1 3.431 14.959 108.811 108.811 0 0 1 .842 12.1c-.465-.389-1.052-1-1.517-1.384-2.226-2.208-4.229-4.459-6.231-6.711-4.593-5.109-8.739-10.3-14.526-14.457-10.785-8.219-20.244-3.471-12.943 7.358 5.623 8.273 16.229 12.2 25.317 14.738 1.822.6 6.376 2.112 8.48 4.1l.121.217c.466.389.708.823 1.174 1.212.5 9.282 1.91 18.866 7.814 28.527 11.162 19.93 29.268 39.455 33.222 58.881 2.5 14.179-.952 28.328-.214 43.335.271 17.265 4.287 35.475 5.125 52.868.342 2.819.684 5.638 1.128 8.2q-9.012-10.133-19-19.35c-13.758-12.2-27.739-24.364-40.728-36.959a11.625 11.625 0 0 1 .752-3.515 47.17 47.17 0 0 1 5.434-12.375c6-9.6 19.956-19.563 22.538-33.059 4.1-17.4-17.876-30.154-34.118-23.829-14.2 6.884-14.109 25.146-12.7 40.022a114.926 114.926 0 0 0 3.671 18.038l-1.76-1.818c-9.164-9.741-17.9-20.046-26.966-30.048-.04-.954-.99-2.21-1.374-3.337a43.43 43.43 0 0 1-3.214-7.064c-3.133-7.8-5.8-20.506-5.669-28.227-.271-17.265 10.307-30.171 5.927-49.031-2.158-11.361-15.509-27.252-28.026-20.458-3.949 2.22-5.8 6.432-7.437 10.123-2.657 6.3-3.593 13.455-3.4 20.872a93.489 93.489 0 0 0 6.7 31.392 154.334 154.334 0 0 0 8.631 18.5c-16.288-13.629-34.075-25.52-50.222-38.456a1.759 1.759 0 0 0-.181-1.648 26.6 26.6 0 0 1-.624-4.207c-.281-4.033.291-11.843 2.258-15.838 7.259-14.417 15.529-28.793 14.671-46.663-.531-20.821-6.479-55.728-35.522-68.29-19.876-8.112-28.9 7.133-28.987 21.1-1.455 24.338 11.989 50.554 23.026 75.56 4.467 10.185 7.842 18.419 11.378 27.825a153.667 153.667 0 0 1-11.855-12.338c-10.276-12.167-17.516-24.211-26.171-37.9-7.482-12.477-15.855-24.779-23.337-37.256-1.455-2.6-2.81-5.46-4.266-8.06a1.38 1.38 0 0 0-.2-2.125c-10.58-11.386-17.092-22.13-26.578-34.213-14.463-18.318-31.294-36.892-52.6-49.773-9.451-5.836-19.715-6.942-23.2.96-2.089 6.425 1.61 14.355 5.168 21.592 3.761 6.716 7.866 13.6 13.287 19.752 8.84 10.045 19.645 18.742 30.876 26.873a270.885 270.885 0 0 0 41.081 23.9l14.087 6.607a2.472 2.472 0 0 0 1.133.258c4.833 8.188 10.456 16.461 15.511 24.606a36.314 36.314 0 0 1-4.311-1.076 103.47 103.47 0 0 1-20.18-7.331c-23.255-11.055-44.946-27.71-70.41-35.2-4.878-1.2-9.96-1.887-13.706-.187a9.671 9.671 0 0 0-4.665 11.982c3.333 9.927 13.895 18.19 23.811 24.415 23.05 14.223 49.727 23.883 73.84 23.224 8.078-.148 16.016-.989 22.759-3.519l.223-.044c7.341 11.784 14.9 23.523 24.229 34.435 8.031 9.483 17.7 17.921 27.678 25.578a71.348 71.348 0 0 0 4.755 3.633c-11.558-2.534-22.3-7.153-34.429-12.463-12.467-5.482-24.915-10.488-37.788-14.928-15.363-4.913-32.243-11.21-46.518-8.881-8.687 1.711-10.474 10-4.305 17.925 5.6 7.8 14.932 13.416 23.35 18.733a159.534 159.534 0 0 0 45.783 18.165c16.214 3.783 32.349 5.657 47.695 4.8 10.529-.629 21.381-1.563 30.676-4.837.223-.044.1-.26.1-.26 12.525 9.56 24.827 19.164 35.368 29.6q9.681 10 18.693 20.131a234.369 234.369 0 0 1-47.026-7.578c-21.761-4.855-48.762-14.211-63.408-1.947-9.035 6.83-5.441 20.313 6.5 29.267 11.473 8.564 25.42 11.831 38.154 12.932 19.738 2.127 36.1-3.981 50.38-11.6 6.157-3.136 13.954-7.317 19.28-8.847a16.14 16.14 0 0 1 4.677-.92l1.337-.264c4.005 4.5 8.355 9.179 12.583 13.638 1.639 1.6 3.055 3.247 4.572 4.632l.243.433c.242.433.586.606 1.274.952l6.677 6.622a1.618 1.618 0 0 0 .5 1.344 4.5 4.5 0 0 0 1.72.864c10.764 10.388 22.074 20.428 33.607 30.424a286.51 286.51 0 0 1 27.757 27.486c.465.389.829 1.039 1.416 1.645a4.344 4.344 0 0 1-.042 1.692c-1.407 14.709 1.032 30.1 3.592 45.714-9.379 6.657-25.858 4.61-38.615 8.324-8.87 2.709-16 9.4-15.5 18.686.317 10.28 8.427 21.672 19.922 28.067 15.765 9.163 30.935 1.366 33.7-10.483 2.557-8.681 3.191-17.705 3.927-26.99 2.341 10.363 4.58 20.986 5.565 31.134 1.571 10.755 0 21.646.26 33.141.3 1.865-.185 3.644.563 5.421 1.193 1.69 4.21 1.336 3.907-.528-.724-6.593.133-15.66.26-23.382a222.319 222.319 0 0 0-1.623-22.771c-1.51-11.969-4.943-24.281-7.364-36.552l.245-2.213a.781.781 0 0 0-.141-.694c2-.395 1.984-.872 3.321-1.135 7.431-2.184 15.166-2.5 23.385-1.958-.3.781-.042 1.692-.467 2.256-.265 1.736-.67 2.778-.853 3.776-1.867 6.381-4.888 12.027-7.788 17.889-5.393 10.683-11.476 23.666-2.456 38 15.065 24.694 43.979 20.685 37.8-3.594-2.926-13.615-14.314-28.209-18.638-40.346-1.453-5.246-1.816-8.542-.557-13.36a12.228 12.228 0 0 1 1.2-3.6c7.227.983 14.353 2.225 21.8 3.164a85.92 85.92 0 0 0 11.011.722Zm-130.493-296.607c-.889-2.47-1.556-4.985-2.323-7.239 1.821.6 3.866 1.163 5.566 1.55 4.21 1.336 7.044 1.98 10.4 4.446l.122.216.344.173c.931.779 1.537 1.862 2.569 2.38-.1.261.02.478-.2.521a265.633 265.633 0 0 0-7.327 26.217c-.1.26.02.477-.2.521-1.292-9.367-5.294-19.162-8.951-28.785Zm82.318 226.479c2.45-.482 11.783-.155 14.05.361a52.6 52.6 0 0 1 6.458 1.374 39.192 39.192 0 0 0-5.54 17.927 33.79 33.79 0 0 0-7.993-5.882 52.082 52.082 0 0 0-17.568-6.643l-.122-.217c1.824-2.042 3.647-4.085 5.592-5.911l.223-.044a17.749 17.749 0 0 1 4.9-.965Zm66.4-79.7a119.938 119.938 0 0 0-8.24-27.962 188.37 188.37 0 0 0-8.471-17.333 21.36 21.36 0 0 0-1.921-2.989l3.586-2.871c8.48 4.1 15.987 9.119 24.445 15.391 4.634 3.417 9.632 7.484 14.954 11.246-7.96 8.305-16.266 16.434-24.35 24.52Zm82.3-137.426a135.325 135.325 0 0 1 19.95-11.625c1.438-.523 2.532-1.22 3.969-1.743-2.535 6.512-4.949 13.241-7.828 19.58s-6.1 12.506-9.327 18.673a1.437 1.437 0 0 0-.628 1.086c-.2.521-.527.825-.73 1.346a94.675 94.675 0 0 0-22.167-3.813c-3.6-.253-6.984-.549-10.466-.585 9.096-8.043 17.969-16.043 27.227-22.917Zm-34.359 29.621c8.218 3.193 18.518 10.545 29.223 16.856-2.209 3.561-4.2 7.079-6.526 10.424a41.859 41.859 0 0 0-12.651-4.484 107.066 107.066 0 0 0-32.615-1.275c7.456-7.005 15.235-14.309 22.569-21.521Zm-36.75 34.174a26.586 26.586 0 0 0 2.269-2.13c1.478.431 3.158.34 4.636.771 5.668 1.289 11.578 3.012 17.266 4.778 6.255 1.895 14.918 5 22.954 6.545-4.154 5.388-8.653 10.6-13.151 15.818-5.666-3.936-12.062-6.525-18.438-8.637a87.744 87.744 0 0 0-17.914-4.169c-3.948-.426-7.774-.634-11.6-.843q7.323-6.137 13.978-12.138Zm-77.9 51.657c3.79-6.038 7.56-12.553 9.63-19.454 2.063 3.682 4.125 7.365 6.532 11.221a233.9 233.9 0 0 0-20.541 16.311q2.187-4.044 4.377-8.083ZM1453 914.443a227.531 227.531 0 0 1 25.079-20.572 203.16 203.16 0 0 0 24.721 30.009c3.156 2.987 6.656 6.146 9.914 8.872a8.225 8.225 0 0 0 1.275.951c-5.268 5.607-10.415 11.431-15.561 17.255a1.392 1.392 0 0 0-1.337.263 1.2 1.2 0 0 0-.487 1.78c-2.9 3.216-5.572 6.388-8.591 9.388-2.18-9.192-3.914-18.471-8.341-27.7-5.539-11.659-14.704-21.399-26.672-20.246Zm-19.077 91.787c-1.16-19.735-5.661-38.812-5.2-57.423.062-1.214 0-2.646.064-3.86 2.368.255 2.674-3.173 3.85-4.607 1.358-2.432 2.837-4.647 4.317-6.863 2.04 5.852 6.227 12 10.819 17.112 6.352 6.927 15.359 10.2 23.394 14.395a34.234 34.234 0 0 1 4.391 2.984c.121.216.587.606.708.822.344.173.951 1.256 1.295 1.429a7.773 7.773 0 0 1 1.092 1.95c-8.186 8.346-17.059 16.347-25.467 24.737a77.618 77.618 0 0 0 .013-18.523c-.624-4.207-1.613-9.063-5.153-13.176-2.589-2.858-7.448-3.585-9.494-1.5-2.168 1.87-2.15 4.993-2.253 7.9.34 5.465 2.037 11.145 4.057 16.519a94.961 94.961 0 0 1 4.06 13.873 18.5 18.5 0 0 1 .483 3.512q-4.984 5.672-9.6 11.993c-.387-3.772-.992-7.504-1.374-11.274Zm9.252 57.587a29.671 29.671 0 0 0-4.435 1.354l-.223.044c-1.653-10.017-3.021-21.292-3.582-29.36a22.462 22.462 0 0 1 .023-4.815 1.523 1.523 0 0 0 1.154.735c1.821.6 3.118-.614 2.148-2.347-.384-1.127-.545-2.3-.929-3.425.891-.175 1.539-.784 1.276-1.694.223-.044.223-.044.567.129a29.411 29.411 0 0 1 6.559 1.114c4.21 1.335 11.779 5.137 17.69 6.859 3.987 1.38 8.5 1.934 11.721 1.06a50.214 50.214 0 0 0 1.574 8.108 69 69 0 0 0 10.936 22.621c.243.433.708.822.951 1.255-14.472-2.441-32.327-5.18-45.428-1.638Z"></path><path fill="#f0eff4" fill-rule="evenodd" d="M559.984 801.263c-91.227 21.546-228.255 99.852-259.824-45.163-21.627-99.361 235.2-90.877 288.54-145.93 117.338-121.106 297.943-11.542 220.715 27.39-154.746 77.972-30.591 112.007-249.431 163.703Z"></path><path fill="#ffc197" fill-rule="evenodd" d="M1256.719 963.2c-34.4 51.542-380.844 79.806-425.875 16.471-69.6-97.8 130.844-377.3 130.844-377.3-2.586-13.359-3.068-45.653 7.456-58.255 15.942-19.155-7.773-37.347 6.98-41.479 18.96-5.291 34.153 12.62 67.183 21.577 19.569 5.252 16.837 56.619-1.664 85.37-6.585 10.2-19.164 11.132-19.164 11.132s-77.321 190.261-60.9 226.7c20.369 45.072 117.34-6.822 266.336-27.854 71.255-10.071 47.759 115.228 28.804 143.638Z"></path><g fill-rule="evenodd" clip-path="url(#a)"><path fill="#fe9400" d="M1065.05 823.951c13.042 10 16.122 33.684 18.334 48.5 2.347 15.658 1.633 31.732-3.6 46.826-7.867 22.721-24.188 41.3-30.894 64.432-4.981 17.211-3.79 36.607 2.046 53.5a69.757 69.757 0 0 0 12.153 21.688c31.517 37.987 96.417 23.807 136.217 10.451 44.789-15.033 89.03-43.674 112.142-86.149 35.855-65.853 3.33-147.088-58.44-183.606a176.411 176.411 0 0 0-80.433-23.886c-33.661-1.767-68.222 4.619-97.307 22.034Z"></path><path fill-opacity=".1" d="M934.013 614.661c-22.379 42.229-51.247 134.567-66.305 179.633-19.218 57.862-26.872 101.722 2.662 153.535 34.942 61.472 151.58 37.446 208.651 21.655a449.095 449.095 0 0 0 37.271-12.113 367.217 367.217 0 0 0 50.166-22.745c33.278-18.6 61.064-44.159 85.939-72.82 7.155-8.219 13.561-17.2 21.132-25.017 2.246-2.337 5.657-5.782 9.318-5.357 6.156.707 7.571 12.063 8.4 16.481 3.162 18.3 2.912 37.421 1.664 55.881-4.908 72.962-28.618 145.848-93.843 185.7-40.266 24.618-90.432 32.271-136.355 39.01-45.84 6.722-94.093 12.8-140.515 8.569-82.862-7.554-170.3-43.56-215.639-117.046-52.411-85.127-28.285-198.894 14.727-282.627 10.732-20.874 23.128-40.949 37.854-59.243 28.7-35.649 67.137-68.1 112.478-78.985Z"></path></g><path fill="#77536f" fill-rule="evenodd" d="M513.742 512.939C509.659 506.513 501.9 501.9 493 500.6a34.559 34.559 0 0 0-25.059 5.641L90.248 778.111c-9.791 7.048-12.487 18.494-6.543 27.851l475.32 748.2c4.142 6.521 11.837 11.037 20.8 12.435a34.559 34.559 0 0 0 25.059-5.641l377.691-271.871c9.791-7.048 12.487-18.494 6.542-27.851Zm-5.676 2.3 475.379 748.3c4.624 7.278 2.538 16.218-5.165 21.763l-377.69 271.87a27.431 27.431 0 0 1-19.611 4.474c-7.033-1-13.036-4.666-16.278-9.769L89.382 803.666c-4.684-7.372-2.6-16.312 5.1-21.857l377.689-271.87a27.427 27.427 0 0 1 19.611-4.473c7.099 1.091 13.042 4.665 16.284 9.768Z"></path><path fill="#a9a5c6" fill-rule="evenodd" d="M586.834 506.112a9.339 9.339 0 0 0-6.261-4.24 9.661 9.661 0 0 0-7.3 1.547L170.739 793.17a9.537 9.537 0 0 0-2.419 12.874l470.669 740.885a9.108 9.108 0 0 0 6.2 4.149 9.237 9.237 0 0 0 7.305-1.547l402.529-289.751a9.439 9.439 0 0 0 2.477-12.78Z"></path><path fill="#fff" fill-rule="evenodd" d="M892.1 1088.719c-6.7-10.542-19.156-18.025-33.761-20.171s-29.595 1.222-40.632 9.166L607.394 1229.1c-26.8 19.289-34.023 50.424-17.731 76.068 6.7 10.542 19.15 18.015 33.754 20.16s29.595-1.221 40.581-9.128l210.363-151.426c26.745-19.249 34.029-50.411 17.739-76.055Zm-4.536 1.809.006.01c15.254 24.01 8.432 53.192-16.618 71.224l-210.365 151.425c-9.8 7.058-23.218 10.083-36.258 8.164-12.987-1.957-24.157-8.588-30.137-18-15.253-24.009-8.432-53.191 16.619-71.224L821.175 1080.7c9.8-7.057 23.218-10.083 36.2-8.136 13.038 1.921 24.209 8.552 30.188 17.964Z"></path><path fill="#77536f" fill-rule="evenodd" d="M1061.28 1021.52a57.888 57.888 0 0 0-82.68-15.92l-269.135 193.726a65.579 65.579 0 0 0-17.036 88.43 57.862 57.862 0 0 0 82.681 15.923l269.134-193.729a65.631 65.631 0 0 0 17.044-88.418Z"></path><path fill="#fff" fill-rule="evenodd" d="M750.226 872.607a23.367 23.367 0 0 0-33.4-6.415l-263.118 189.4a26.325 26.325 0 0 0-6.853 35.494 23.367 23.367 0 0 0 33.346 6.447L743.373 908.1a26.318 26.318 0 0 0 6.856-35.488ZM806.212 960.712a23.368 23.368 0 0 0-33.4-6.416L509.693 1143.7a26.325 26.325 0 0 0-6.853 35.494 23.368 23.368 0 0 0 33.346 6.448l263.17-189.436a26.319 26.319 0 0 0 6.856-35.489Z"></path><path fill="#fff" d="m779.756 1232.47 7.349-6.064a6.67 6.67 0 0 0 5.324 1.945 13.74 13.74 0 0 0 6.522-2.889 15.563 15.563 0 0 0 5.037-5.225c.788-1.651.877-3.005.247-4a2.321 2.321 0 0 0-1.87-1.078 8.677 8.677 0 0 0-3.589.881c-1.03.432-3.392 1.565-7.068 3.334-4.68 2.336-8.211 3.588-10.616 3.721-3.344.24-5.67-.716-7.042-2.875a7.084 7.084 0 0 1-.806-5.1 14.564 14.564 0 0 1 3.126-6.274 35.781 35.781 0 0 1 7.1-6.453q7.382-5.313 12.52-5.761c3.425-.3 5.968.811 7.664 3.2l-7.692 5.9a4.906 4.906 0 0 0-4.108-1.428 13.261 13.261 0 0 0-5.586 2.68 15.594 15.594 0 0 0-4.739 4.855 2.327 2.327 0 0 0-.2 2.572 2.215 2.215 0 0 0 2.237.814c1.376-.165 4.18-1.255 8.386-3.4a63.208 63.208 0 0 1 9.8-4.166 12.162 12.162 0 0 1 6.065-.342 7.006 7.006 0 0 1 4.289 3.207 7.887 7.887 0 0 1 .918 5.736 14.7 14.7 0 0 1-3.375 6.814 39.326 39.326 0 0 1-7.83 7.08c-4.961 3.572-9.238 5.516-12.893 5.826a10.63 10.63 0 0 1-9.17-3.51ZM809.515 1191.341l-3.058-4.814 7.483-5.386 3.058 4.814Zm14.213 22.373L811.2 1194l7.483-5.386 12.526 19.717ZM839.015 1204.567l9.013-5.4a1.939 1.939 0 0 0 1.876.713 9.228 9.228 0 0 0 3.735-1.864 16.3 16.3 0 0 0 4.01-3.763 3.851 3.851 0 0 0 .632-2.363 6.492 6.492 0 0 0-1.164-2.671l-1.821-2.867a15.665 15.665 0 0 1-6.435 9.275c-3.823 2.751-7.552 3.784-11.165 3.135a9.909 9.909 0 0 1-6.849-4.716 10.974 10.974 0 0 1-1.333-10.029 17.739 17.739 0 0 1 6.836-8.738 14.608 14.608 0 0 1 10.686-3.049l-1.754-2.761 7-5.035 11.244 17.7a15.442 15.442 0 0 1 2.492 5.789 8.961 8.961 0 0 1-.586 4.4 16.322 16.322 0 0 1-3.018 4.391 37.26 37.26 0 0 1-5.944 5.1c-4.8 3.455-8.575 5.348-11.31 5.614-2.712.3-4.651-.418-5.776-2.188a5.008 5.008 0 0 1-.369-.673Zm-.661-16.341c1.327 2.088 2.863 3.2 4.672 3.343a7.963 7.963 0 0 0 5.233-1.652 9.66 9.66 0 0 0 3.692-4.824 6.543 6.543 0 0 0-.941-5.772c-1.3-2.053-2.881-3.136-4.69-3.278a8.539 8.539 0 0 0-5.54 1.821 9.027 9.027 0 0 0-3.511 4.643 6.758 6.758 0 0 0 1.085 5.719ZM897.948 1160.289l-7.483 5.386-6.387-10.053q-2.023-3.186-3.119-3.79a3.956 3.956 0 0 0-2.468-.339 7.251 7.251 0 0 0-2.94 1.342 10.472 10.472 0 0 0-3.025 3.261 5.59 5.59 0 0 0-.855 3.505 14.631 14.631 0 0 0 2.309 4.94l5.667 8.921-7.483 5.387-12.526-19.718 6.954-5.006 1.845 2.9a17.784 17.784 0 0 1 7.2-10.031 20.884 20.884 0 0 1 4.938-2.677 10.06 10.06 0 0 1 4.1-.632 5.888 5.888 0 0 1 2.858 1.141 12.53 12.53 0 0 1 2.634 3.211ZM903.41 1116.738l7.89-5.679 9.355 14.726a26.976 26.976 0 0 0 3.163 4.326 5.309 5.309 0 0 0 4.149.934 17.875 17.875 0 0 0 10.271-7.342 5.109 5.109 0 0 0 .591-3.829 24.227 24.227 0 0 0-2.6-4.836l-9.557-15.045 7.889-5.679 9.063 14.266c2.069 3.256 3.35 5.739 3.757 7.406a8.765 8.765 0 0 1-.159 5.067 18.123 18.123 0 0 1-3.22 5.568 37.305 37.305 0 0 1-6.966 6.2c-3.741 2.693-6.727 4.43-9.084 5.2a14.264 14.264 0 0 1-6.016.978 7.921 7.921 0 0 1-4.171-1.434 27.162 27.162 0 0 1-5.158-6.347ZM947.36 1095.987l7-5.035 1.844 2.9a12.643 12.643 0 0 1 2.131-5.042 17.5 17.5 0 0 1 4.539-4.609 15.792 15.792 0 0 1 10.087-3.34c3.443.1 6.178 1.8 8.2 4.981a11.541 11.541 0 0 1 1.423 10.17 17.4 17.4 0 0 1-6.687 8.785 16.547 16.547 0 0 1-4.634 2.407 17.132 17.132 0 0 1-5.443.668l6.319 9.948-7.483 5.386Zm13.451 4.195c1.416 2.23 3.1 3.39 5.037 3.544a8.318 8.318 0 0 0 5.607-1.715 8.616 8.616 0 0 0 3.407-4.619c.532-1.776.089-3.778-1.3-5.973-1.327-2.088-2.863-3.2-4.7-3.379a8.174 8.174 0 0 0-5.377 1.7 9.15 9.15 0 0 0-3.61 4.766 6.529 6.529 0 0 0 .936 5.676Z"></path><ellipse cx="493.071" cy="824.031" fill="#fff" rx="124.899" ry="103.561" transform="rotate(-43.2 493.07 824.03)"></ellipse><path fill="#d1cfe1" fill-rule="evenodd" d="M482.619 875.921c-14.591-.221-27.744-6.623-35.476-18.794-14.017-22.064-4.866-54.789 20.482-73.036s57.4-15.164 71.414 6.9c9.066 14.271 8.325 33.034-.044 49.4 34.363-11.562 65.112-5.833 72.865 15.515 9.073 25.067-17.052 62.257-58.26 82.973s-82.157 17.222-91.229-7.845c-5.66-15.934 2.729-36.734 20.248-55.113Z"></path><path fill="#fe9400" fill-rule="evenodd" d="M1225.557 1383.137c8.818-166.389-49.667-311.2-44.343-406.321 3.411-60.341-22.712-149.9 76.456-164.409 85.024-12.438 190.1 10.034 210.814 32.912 41.93 46.156 26.705 296.421-13.145 330.556-79.866 50.99-167.386 156.314-229.782 207.262Z"></path><g clip-path="url(#b)"><path fill-opacity=".1" fill-rule="evenodd" d="M1397.51 936.749c-6.906 9.217-10.816 20.624-14.061 31.539-8.569 28.144-8.9 56.231-4.991 85.191 3.827 28.6 11.4 58.227 6.239 87.154-3.909 21.4-15.39 39.093-26.621 57.263-28.2 45.7-44.842 60.707-83.029 94.592-21.714 19.2-64.059 98.127-57.653 128.843 4.41 21.422 38.269.623 51-5.924 34.526-17.795 65.391-42.812 99.084-62.354 48.086-27.961 102.162-52.113 138.186-96.123 47.837-58.5 53.577-146.954 35.191-217.877-8.736-33.76-24.126-69.093-54.492-88.461Z"></path></g><path fill="#ffc197" fill-rule="evenodd" d="M1458.657 848.333c57.161 24.13 173.557 352.544 106.649 413.727s-508.019-46.6-508.019-46.6c-12.638 5.047-44.185 11.582-58.62 3.605-21.724-12.054-8.355-38.971-15.183-52.68-8.753-17.629-71.281 22.037-68.761-12.108 1.57-20.194 102.939-31.493 134.65-18.7 11.339 4.559 14.611 16.748 14.611 16.748s314.181 29.1 346.892 6.125c40.451-28.462-60.943-131.077-45.165-247.07 9.71-71.299 61.562-76.323 92.946-63.047Z"></path><g clip-path="url(#c)"><path fill="#fe9400" fill-rule="evenodd" d="M1368.411 1061.224c7.378-14.687 30.062-22.155 44.2-27.107 14.939-5.243 30.862-7.557 46.669-5.253 23.793 3.465 45.105 16.011 69.082 18.259 17.841 1.664 36.669-3.144 52.168-12.046a69.744 69.744 0 0 0 19.023-16.006c31.4-38.083 5.3-99.171-15.287-135.76-23.168-41.174-59.6-79.256-105.657-93.99-71.41-22.865-145.1 24.322-169.383 91.845a176.4 176.4 0 0 0-8.373 83.486c4.578 33.395 17.334 66.145 39.9 91.447Z"></path></g><path fill="#ffc197" fill-rule="evenodd" d="M1271.174 810.159s33.528-24.8 25.707-50.907c-2-6.855-17.137 12.462-30.781 4.1-18.636-11.5-23.129-77.778-2.08-112.262 13.061-21.373 58.984-34.193 73.96-19.634s20.881 76.614 15.723 107c-8.153 48.47 36.023 77.629 36.023 77.629s-73.378 58.727-91.847 107.471c-5.407 14.314-26.705-113.397-26.705-113.397Z"></path><g clip-path="url(#d)"><path fill-opacity=".1" fill-rule="evenodd" d="M1288.136 762.82c2.662-1.439 4.825-4.376 6.822-6.572a139.778 139.778 0 0 0 12.646-15.682c1.414-2.2 2.828-4.443 4.409-6.615.333-.549 1.248-2.146 2.08-2.146s.333 2.746.25 3.1a66.591 66.591 0 0 1-2.663 11.314c-4.575 15.091-13.976 26.389-24.043 38.128Z"></path></g><path fill-rule="evenodd" d="M1274.253 679.094c-6.24-.374-12.063-4.018-16.889-7.745-18.552-14.293-17.3-39.16-1.165-54.834 9.734-9.409 29.7-15.69 39.019-2.445 2.995-4.243 9.234-6.041 13.976-7.147a34.573 34.573 0 0 1 11.814-1.032c27.121 3.653 20.8 37.737 41.43 48.636 6.739-4.335 14.144 9.833 15.474 14.151 4.576 15.017 2.58 40.682-14.725 46.672-1.5 4.035-5.324 6.872-8.735 9.2-9.4 6.465-24.543 11.09-35.025 4.41a16.982 16.982 0 0 1-3.411-2.912c-7.487-8.328.416-17.82 2.912-26.472 1.331-4.56 2.413-10.267-1.58-13.852-3.245-2.812-6.49-1.215-9.069 1.5-3.91 4.135-6.073 10.649-12.313 11.814-8.985 1.664-17.72-6.972-20.549-13.029-.583-1.283-1.164-6.915-1.164-6.915Z"></path><g fill-rule="evenodd"><path fill="#77536f" d="M1216.889 612.983a15.632 15.632 0 0 0-8.738-14.048L874 434.6a15.69 15.69 0 0 0-22.573 14.052v55.3A15.719 15.719 0 0 0 860.165 518l334.216 164.366a15.624 15.624 0 0 0 22.506-14.089Z"></path><path fill="#fff" d="m898.564 516.488-7.11-8.045 9.251-9.4-16.355-12.375 2.186-6.968 16.356 12.373-.866-17.059 8.459 3.734.865 17.059 15.821 1.831 3.01 9.262-15.821-1.832 10.652 18.189-6.6 1.993-10.6-18.172ZM957.422 545.4l-7.11-8.046 9.251-9.4-16.355-12.372 2.186-6.968 16.356 12.372-.866-17.058 8.459 3.734.865 17.058 15.821 1.832 3.01 9.261-15.821-1.831 10.652 18.189-6.6 1.992-10.6-18.171ZM1020.488 573.528l-7.11-8.045 9.251-9.4-16.355-12.372 2.186-6.968 16.356 12.373-.866-17.059 8.459 3.734.865 17.059 15.821 1.831 3.01 9.262-15.821-1.832 10.652 18.189-6.6 1.993-10.6-18.172ZM1082.07 606.705l-7.11-8.046 9.251-9.4-16.355-12.373 2.187-6.967 16.355 12.372-.866-17.058 8.459 3.734.865 17.058 15.821 1.832 3.01 9.261-15.821-1.831 10.652 18.188-6.6 1.993-10.6-18.171ZM1147.055 638.664l-7.11-8.045 9.251-9.4-16.355-12.372 2.187-6.968 16.355 12.373-.866-17.059 8.459 3.734.866 17.059 15.82 1.831 3.01 9.262-15.821-1.832 10.652 18.189-6.6 1.993-10.6-18.172Z"></path></g><path fill="#ffc197" fill-rule="evenodd" d="M1006.811 612.137c5.2-5.9 36.425-20.114 44.621-21.255 13.07-1.92 25.373 6.642 20.844 19.071-1.8 4.782-41.351 15.769-52.229 16.159-4.454.141-15.312-11.637-13.236-13.975Z"></path></svg>