<?xml version="1.0" encoding="UTF-8"?> <svg xmlns="http://www.w3.org/2000/svg" id="tronlink1" data-name="tronlink1" viewBox="0 0 512 367"><defs><style>.cls-1{fill:#135dcd;}.cls-2{fill:#fff;}</style></defs><g id="tronlink2" data-name="tronlink2"><rect class="cls-1" x="72.5" width="367" height="367" rx="78.92"></rect><polygon class="cls-2" points="265.63 367 243.57 367 151.98 111.13 143.97 88.75 144.09 88.24 167.6 93.29 173.64 110.18 175.81 116.26 185.01 141.95 265.63 367"></polygon><polygon class="cls-2" points="367.72 284.05 366.26 305.71 362.11 367 341.36 367 346.69 288.04 347.04 282.67 367.72 284.05"></polygon><polygon class="cls-2" points="439.5 190.68 439.5 219.96 383.03 276.43 373.52 285.94 358.88 271.3 439.5 190.68"></polygon><polygon class="cls-2" points="439.5 266.73 439.5 287.76 354.58 302.32 351.06 281.92 439.5 266.73"></polygon><polygon class="cls-2" points="143.97 88.75 144.09 88.24 167.6 93.29 439.5 151.61 439.5 172.77 175.81 116.26 151.98 111.13 143.97 88.75"></polygon><rect class="cls-2" x="257.92" y="70.62" width="20.72" height="265.19" transform="translate(-62.36 266.03) rotate(-47.9)"></rect></g></svg> 